<?xml version="1.0" encoding="UTF-8"?>
<!DOCTYPE svg PUBLIC "-//W3C//DTD SVG 1.1//EN" "http://www.w3.org/Graphics/SVG/1.1/DTD/svg11.dtd">
<svg xmlns="http://www.w3.org/2000/svg" version="1.1" width="834px" height="834px" style="shape-rendering:geometricPrecision; text-rendering:geometricPrecision; image-rendering:optimizeQuality; fill-rule:evenodd; clip-rule:evenodd" xmlns:xlink="http://www.w3.org/1999/xlink">
<g><path style="opacity:0.991" fill="#000000" d="M 354.5,226.5 C 392.833,226.5 431.167,226.5 469.5,226.5C 469.333,276.168 469.5,325.834 470,375.5C 495.898,352.43 526.065,343.93 560.5,350C 603.658,357.83 627.491,383.664 632,427.5C 633.427,464.811 633.927,502.145 633.5,539.5C 645.833,539.5 658.167,539.5 670.5,539.5C 670.5,561.833 670.5,584.167 670.5,606.5C 632.5,606.5 594.5,606.5 556.5,606.5C 556.667,557.499 556.5,508.499 556,459.5C 552.102,429.908 535.602,417.741 506.5,423C 492.701,427.48 480.535,434.646 470,444.5C 469.5,476.165 469.333,507.832 469.5,539.5C 481.833,539.5 494.167,539.5 506.5,539.5C 506.5,561.833 506.5,584.167 506.5,606.5C 455.833,606.5 405.167,606.5 354.5,606.5C 354.5,584.167 354.5,561.833 354.5,539.5C 367.5,539.5 380.5,539.5 393.5,539.5C 393.5,457.5 393.5,375.5 393.5,293.5C 380.5,293.5 367.5,293.5 354.5,293.5C 354.5,271.167 354.5,248.833 354.5,226.5 Z"/></g>
<g><path style="opacity:0.98" fill="#000000" d="M 230.5,228.5 C 266.276,226.777 283.776,243.777 283,279.5C 275.81,306.358 258.31,318.192 230.5,315C 204.607,307.074 193.441,289.574 197,262.5C 201.682,244.652 212.849,233.319 230.5,228.5 Z"/></g>
<g><path style="opacity:0.994" fill="#000000" d="M 161.5,353.5 C 199.833,353.5 238.167,353.5 276.5,353.5C 276.5,415.5 276.5,477.5 276.5,539.5C 288.167,539.5 299.833,539.5 311.5,539.5C 311.5,561.833 311.5,584.167 311.5,606.5C 261.5,606.5 211.5,606.5 161.5,606.5C 161.5,584.167 161.5,561.833 161.5,539.5C 174.5,539.5 187.5,539.5 200.5,539.5C 200.5,499.833 200.5,460.167 200.5,420.5C 187.5,420.5 174.5,420.5 161.5,420.5C 161.5,398.167 161.5,375.833 161.5,353.5 Z"/></g>
</svg>
