<?xml version="1.0" encoding="utf-8"?>
<!-- Generator: Adobe Illustrator 26.0.1, SVG Export Plug-In . SVG Version: 6.00 Build 0)  -->
<svg version="1.1" id="Layer_1" xmlns="http://www.w3.org/2000/svg" xmlns:xlink="http://www.w3.org/1999/xlink" x="0px" y="0px"
	 viewBox="0 0 200 200" style="enable-background:new 0 0 200 200;" xml:space="preserve">
<style type="text/css">
	.st0{fill:#FFFFFF;}
</style>
<g>
	<path d="M-2814.71,84.82h27.25v44.65h8.44v16.05h-35.68v-16.05h9.14v-28.59h-9.14V84.82z M-2806.5,65.25c0-1.44,0.26-2.8,0.79-4.07
		c0.53-1.27,1.26-2.37,2.2-3.31s2.04-1.68,3.31-2.23c1.27-0.55,2.65-0.82,4.13-0.82c1.41,0,2.73,0.27,3.98,0.82
		c1.25,0.55,2.34,1.29,3.28,2.23s1.68,2.04,2.23,3.31c0.55,1.27,0.82,2.63,0.82,4.07c0,1.45-0.27,2.8-0.82,4.07
		c-0.55,1.27-1.29,2.37-2.23,3.31s-2.03,1.68-3.28,2.23c-1.25,0.55-2.58,0.82-3.98,0.82c-1.49,0-2.86-0.27-4.13-0.82
		c-1.27-0.55-2.37-1.29-3.31-2.23s-1.67-2.04-2.2-3.31C-2806.24,68.06-2806.5,66.7-2806.5,65.25z"/>
	<path d="M-2767.6,135.92l25.14-35.51h-11.78v9.14h-15.29V84.82h53.2v10.55l-26.43,34.45h13.48v-11.66h15.35v27.36h-53.67V135.92z"
		/>
	<path d="M-2700.8,135.92l25.14-35.51h-11.78v9.14h-15.29V84.82h53.2v10.55l-26.43,34.45h13.48v-11.66h15.35v27.36h-53.67V135.92z"
		/>
	<path d="M-2597.5,142.25c-1.37,0.86-2.62,1.59-3.75,2.2c-1.13,0.61-2.27,1.09-3.4,1.46c-1.13,0.37-2.31,0.64-3.52,0.82
		c-1.21,0.18-2.54,0.26-3.98,0.26c-3.63,0-6.88-0.5-9.76-1.49s-5.29-2.36-7.27-4.1c-1.97-1.74-3.49-3.79-4.54-6.15
		c-1.05-2.36-1.58-4.93-1.58-7.71c0-2.81,0.54-5.41,1.61-7.79c1.07-2.38,2.63-4.42,4.66-6.12c2.03-1.7,4.52-3.03,7.47-3.98
		c2.95-0.96,6.32-1.44,10.11-1.44c2.77,0,5.3,0.15,7.59,0.44s4.4,0.65,6.36,1.08v-1.88c0-1.52-0.29-2.84-0.88-3.96
		s-1.41-2.03-2.46-2.75c-1.05-0.72-2.32-1.25-3.81-1.58c-1.49-0.33-3.11-0.5-4.86-0.5c-3.67,0-6.91,0.36-9.7,1.08
		c-2.79,0.72-5.48,1.77-8.06,3.13l-5.62-11.37c3.98-2.73,8.15-4.82,12.51-6.27c4.36-1.44,8.97-2.17,13.86-2.17
		c3.79,0,7.29,0.42,10.52,1.26c3.22,0.84,5.99,2.21,8.29,4.1c2.3,1.9,4.11,4.37,5.42,7.41c1.31,3.05,1.96,6.76,1.96,11.13v22.09
		h8.14v16.05h-25.31V142.25z M-2610.86,133.16c2.77,0,5.29-0.45,7.56-1.35c2.26-0.9,4.2-1.99,5.8-3.28v-7.73h-14.06
		c-0.9,0-1.78,0.14-2.64,0.41c-0.86,0.27-1.63,0.66-2.31,1.17c-0.68,0.51-1.23,1.13-1.64,1.88s-0.62,1.6-0.62,2.58
		c0,1.8,0.65,3.3,1.96,4.51C-2615.5,132.56-2613.52,133.16-2610.86,133.16z"/>
	<path d="M-2536.91,84.82h12.13v15.35h-12.25l-0.12,25.66c0,1.48,0.12,2.69,0.35,3.6s0.58,1.65,1.03,2.2
		c0.45,0.55,0.99,0.92,1.61,1.11c0.62,0.2,1.35,0.29,2.17,0.29c1.48,0,2.79-0.15,3.93-0.44c1.13-0.29,2.26-0.63,3.4-1.03l2.52,11.31
		c-1.99,1.25-4.21,2.25-6.65,2.99c-2.44,0.74-5.34,1.11-8.7,1.11c-2.38,0-4.66-0.41-6.83-1.23s-4.07-2.06-5.71-3.72
		c-1.64-1.66-2.95-3.74-3.93-6.24c-0.98-2.5-1.45-5.41-1.41-8.73l0.18-26.89h-8.73V84.82h8.79l0.12-14.53l18.22-8.67L-2536.91,84.82
		z"/>
	<path d="M-2514.3,54.36h27.36v36.09c2.3-2.11,4.83-3.76,7.59-4.95c2.75-1.19,5.79-1.79,9.11-1.79c7.3,0,12.89,2.04,16.76,6.12
		c3.87,4.08,5.8,10.05,5.8,17.9v21.74h8.91v16.05h-27.13v-33.69c0-3.4-0.84-6.07-2.52-8.03c-1.68-1.95-3.85-2.93-6.5-2.93
		c-1.76,0-3.67,0.49-5.74,1.46c-2.07,0.98-4.16,2.4-6.27,4.28v22.85h8.91v16.05h-36.27v-16.05h9.38V70.41h-9.38V54.36z"/>
	<path d="M-2394.41,142.25c-1.37,0.86-2.62,1.59-3.75,2.2c-1.13,0.61-2.27,1.09-3.4,1.46c-1.13,0.37-2.31,0.64-3.52,0.82
		c-1.21,0.18-2.54,0.26-3.98,0.26c-3.63,0-6.88-0.5-9.76-1.49s-5.29-2.36-7.27-4.1c-1.97-1.74-3.49-3.79-4.54-6.15
		c-1.05-2.36-1.58-4.93-1.58-7.71c0-2.81,0.54-5.41,1.61-7.79c1.07-2.38,2.63-4.42,4.66-6.12c2.03-1.7,4.52-3.03,7.47-3.98
		c2.95-0.96,6.32-1.44,10.11-1.44c2.77,0,5.3,0.15,7.59,0.44s4.4,0.65,6.36,1.08v-1.88c0-1.52-0.29-2.84-0.88-3.96
		s-1.41-2.03-2.46-2.75c-1.05-0.72-2.32-1.25-3.81-1.58c-1.49-0.33-3.11-0.5-4.86-0.5c-3.67,0-6.91,0.36-9.7,1.08
		c-2.79,0.72-5.48,1.77-8.06,3.13l-5.62-11.37c3.98-2.73,8.15-4.82,12.51-6.27c4.36-1.44,8.97-2.17,13.86-2.17
		c3.79,0,7.29,0.42,10.52,1.26c3.22,0.84,5.99,2.21,8.29,4.1c2.3,1.9,4.11,4.37,5.42,7.41c1.31,3.05,1.96,6.76,1.96,11.13v22.09
		h8.14v16.05h-25.31V142.25z M-2407.77,133.16c2.77,0,5.29-0.45,7.56-1.35c2.26-0.9,4.2-1.99,5.8-3.28v-7.73h-14.06
		c-0.9,0-1.78,0.14-2.64,0.41c-0.86,0.27-1.63,0.66-2.31,1.17c-0.68,0.51-1.23,1.13-1.64,1.88s-0.62,1.6-0.62,2.58
		c0,1.8,0.65,3.3,1.96,4.51C-2412.41,132.56-2410.43,133.16-2407.77,133.16z"/>
	<path d="M-2330.37,84.82h11.07v15.35h-11.07v29.3h11.19v16.05h-37.68v-16.05h9.08v-29.3h-9.2V84.82h9.2V74.75
		c0-3.55,0.62-6.68,1.88-9.38c1.25-2.7,2.92-4.96,5.01-6.8c2.09-1.84,4.5-3.22,7.24-4.16c2.73-0.94,5.6-1.41,8.61-1.41
		c2.23,0,4.22,0.17,5.98,0.5c1.76,0.33,3.3,0.75,4.63,1.26c1.33,0.51,2.45,1.05,3.37,1.64c0.92,0.59,1.65,1.13,2.2,1.64l-6.74,12.36
		c-0.9-0.66-1.91-1.19-3.05-1.58c-1.13-0.39-2.52-0.59-4.16-0.59c-1.05,0-2.04,0.18-2.96,0.53c-0.92,0.35-1.72,0.86-2.4,1.52
		c-0.68,0.66-1.22,1.49-1.61,2.49c-0.39,1-0.59,2.16-0.59,3.49V84.82z"/>
	<path d="M-2308.98,84.82h27.25v44.65h8.44v16.05h-35.68v-16.05h9.14v-28.59h-9.14V84.82z M-2300.78,65.25
		c0-1.44,0.26-2.8,0.79-4.07c0.53-1.27,1.26-2.37,2.2-3.31s2.04-1.68,3.31-2.23c1.27-0.55,2.65-0.82,4.13-0.82
		c1.41,0,2.73,0.27,3.98,0.82c1.25,0.55,2.34,1.29,3.28,2.23s1.68,2.04,2.23,3.31c0.55,1.27,0.82,2.63,0.82,4.07
		c0,1.45-0.27,2.8-0.82,4.07c-0.55,1.27-1.29,2.37-2.23,3.31s-2.03,1.68-3.28,2.23c-1.25,0.55-2.58,0.82-3.98,0.82
		c-1.49,0-2.86-0.27-4.13-0.82c-1.27-0.55-2.37-1.29-3.31-2.23s-1.67-2.04-2.2-3.31C-2300.52,68.06-2300.78,66.7-2300.78,65.25z"/>
	<path d="M-2261.88,135.92l25.14-35.51h-11.78v9.14h-15.29V84.82h53.2v10.55l-26.43,34.45h13.48v-11.66h15.35v27.36h-53.67V135.92z"
		/>
	<path d="M-2158.22,84.82h28.71v44.65h7.32v16.05h-25.72v-5.16c-2.07,1.88-4.49,3.32-7.27,4.34c-2.77,1.02-5.98,1.52-9.61,1.52
		c-3.36,0-6.52-0.53-9.49-1.58c-2.97-1.05-5.56-2.65-7.76-4.78c-2.21-2.13-3.95-4.79-5.21-8c-1.27-3.2-1.9-6.97-1.9-11.31v-19.69
		h-7.91V84.82h26.84v35.74c0,4.06,1.03,7.1,3.11,9.11c2.07,2.01,4.77,3.02,8.09,3.02c2.34,0,4.47-0.72,6.39-2.17
		c1.91-1.44,3.3-3.4,4.16-5.86v-23.79h-9.73V84.82z"/>
	<path d="M-2077.36,54.36h26.54v75.12h11.84v16.05h-29.88v-2.34c-2.11,1.09-4.27,1.95-6.47,2.58c-2.21,0.62-4.44,0.94-6.71,0.94
		c-4.65,0-8.92-0.83-12.8-2.49c-3.89-1.66-7.23-3.93-10.02-6.83c-2.79-2.89-4.97-6.28-6.53-10.17c-1.56-3.89-2.34-8.06-2.34-12.51
		s0.77-8.6,2.31-12.45c1.54-3.85,3.69-7.2,6.45-10.05c2.75-2.85,6.05-5.1,9.9-6.74c3.85-1.64,8.08-2.46,12.69-2.46
		c2.54,0,4.92,0.24,7.15,0.73c2.23,0.49,4.36,1.18,6.39,2.08V70.41h-8.5V54.36z M-2081.05,130.53c2.58-0.08,4.91-0.74,7-1.99
		c2.09-1.25,3.82-2.89,5.19-4.92v-17.87c-1.37-2.07-3.13-3.68-5.3-4.83c-2.17-1.15-4.46-1.71-6.88-1.67
		c-2.03-0.04-3.94,0.31-5.71,1.05c-1.78,0.74-3.34,1.8-4.69,3.16c-1.35,1.37-2.41,3.01-3.19,4.92c-0.78,1.91-1.17,4.08-1.17,6.5
		c0,2.38,0.39,4.54,1.17,6.47c0.78,1.93,1.85,3.57,3.19,4.92s2.91,2.37,4.69,3.08C-2084.99,130.06-2083.09,130.45-2081.05,130.53z"
		/>
	<path d="M-1995.33,54.36h26.54v75.12h11.84v16.05h-29.88v-2.34c-2.11,1.09-4.27,1.95-6.47,2.58c-2.21,0.62-4.44,0.94-6.71,0.94
		c-4.65,0-8.92-0.83-12.8-2.49c-3.89-1.66-7.23-3.93-10.02-6.83c-2.79-2.89-4.97-6.28-6.53-10.17c-1.56-3.89-2.34-8.06-2.34-12.51
		s0.77-8.6,2.31-12.45c1.54-3.85,3.69-7.2,6.45-10.05c2.75-2.85,6.05-5.1,9.9-6.74c3.85-1.64,8.08-2.46,12.69-2.46
		c2.54,0,4.92,0.24,7.15,0.73c2.23,0.49,4.36,1.18,6.39,2.08V70.41h-8.5V54.36z M-1999.02,130.53c2.58-0.08,4.91-0.74,7-1.99
		c2.09-1.25,3.82-2.89,5.19-4.92v-17.87c-1.37-2.07-3.13-3.68-5.3-4.83c-2.17-1.15-4.46-1.71-6.88-1.67
		c-2.03-0.04-3.94,0.31-5.71,1.05c-1.78,0.74-3.34,1.8-4.69,3.16c-1.35,1.37-2.41,3.01-3.19,4.92c-0.78,1.91-1.17,4.08-1.17,6.5
		c0,2.38,0.39,4.54,1.17,6.47c0.78,1.93,1.85,3.57,3.19,4.92s2.91,2.37,4.69,3.08C-2002.96,130.06-2001.05,130.45-1999.02,130.53z"
		/>
	<path d="M-1949.22,84.82h27.25v44.65h8.44v16.05h-35.68v-16.05h9.14v-28.59h-9.14V84.82z M-1941.02,65.25
		c0-1.44,0.26-2.8,0.79-4.07c0.53-1.27,1.26-2.37,2.2-3.31s2.04-1.68,3.31-2.23c1.27-0.55,2.65-0.82,4.13-0.82
		c1.41,0,2.73,0.27,3.98,0.82c1.25,0.55,2.34,1.29,3.28,2.23s1.68,2.04,2.23,3.31c0.55,1.27,0.82,2.63,0.82,4.07
		c0,1.45-0.27,2.8-0.82,4.07c-0.55,1.27-1.29,2.37-2.23,3.31s-2.03,1.68-3.28,2.23c-1.25,0.55-2.58,0.82-3.98,0.82
		c-1.49,0-2.86-0.27-4.13-0.82c-1.27-0.55-2.37-1.29-3.31-2.23s-1.67-2.04-2.2-3.31C-1940.75,68.06-1941.02,66.7-1941.02,65.25z"/>
	<path d="M-1853.01,110.61c0-3.4-0.9-6.06-2.7-8c-1.8-1.93-4.18-2.9-7.15-2.9c-2.03,0-4.08,0.45-6.15,1.35
		c-2.07,0.9-4.08,2.58-6.04,5.04v23.38h9.84v16.05h-37.73v-16.05h8.91v-28.59h-8.79V84.82h27.66v5.33c2.54-1.99,5.38-3.56,8.53-4.72
		c3.14-1.15,6.45-1.73,9.93-1.73c7.3,0,12.93,2.04,16.88,6.12c3.95,4.08,5.92,10.05,5.92,17.9v21.74h8.61v16.05h-27.71V110.61z"/>
</g>
<g>
	<path class="st0" d="M-1714.71,84.82h27.25v44.65h8.44v16.05h-35.68v-16.05h9.14v-28.59h-9.14V84.82z M-1706.5,65.25
		c0-1.44,0.26-2.8,0.79-4.07c0.53-1.27,1.26-2.37,2.2-3.31s2.04-1.68,3.31-2.23c1.27-0.55,2.65-0.82,4.13-0.82
		c1.41,0,2.73,0.27,3.98,0.82c1.25,0.55,2.34,1.29,3.28,2.23s1.68,2.04,2.23,3.31c0.55,1.27,0.82,2.63,0.82,4.07
		c0,1.45-0.27,2.8-0.82,4.07c-0.55,1.27-1.29,2.37-2.23,3.31s-2.03,1.68-3.28,2.23c-1.25,0.55-2.58,0.82-3.98,0.82
		c-1.49,0-2.86-0.27-4.13-0.82c-1.27-0.55-2.37-1.29-3.31-2.23s-1.67-2.04-2.2-3.31C-1706.24,68.06-1706.5,66.7-1706.5,65.25z"/>
	<path class="st0" d="M-1667.6,135.92l25.14-35.51h-11.78v9.14h-15.29V84.82h53.2v10.55l-26.43,34.45h13.48v-11.66h15.35v27.36
		h-53.67V135.92z"/>
	<path class="st0" d="M-1600.8,135.92l25.14-35.51h-11.78v9.14h-15.29V84.82h53.2v10.55l-26.43,34.45h13.48v-11.66h15.35v27.36
		h-53.67V135.92z"/>
	<path class="st0" d="M-1497.5,142.25c-1.37,0.86-2.62,1.59-3.75,2.2c-1.13,0.61-2.27,1.09-3.4,1.46c-1.13,0.37-2.31,0.64-3.52,0.82
		c-1.21,0.18-2.54,0.26-3.98,0.26c-3.63,0-6.88-0.5-9.76-1.49s-5.29-2.36-7.27-4.1c-1.97-1.74-3.49-3.79-4.54-6.15
		c-1.05-2.36-1.58-4.93-1.58-7.71c0-2.81,0.54-5.41,1.61-7.79c1.07-2.38,2.63-4.42,4.66-6.12c2.03-1.7,4.52-3.03,7.47-3.98
		c2.95-0.96,6.32-1.44,10.11-1.44c2.77,0,5.3,0.15,7.59,0.44s4.4,0.65,6.36,1.08v-1.88c0-1.52-0.29-2.84-0.88-3.96
		s-1.41-2.03-2.46-2.75c-1.05-0.72-2.32-1.25-3.81-1.58c-1.49-0.33-3.11-0.5-4.86-0.5c-3.67,0-6.91,0.36-9.7,1.08
		c-2.79,0.72-5.48,1.77-8.06,3.13l-5.62-11.37c3.98-2.73,8.15-4.82,12.51-6.27c4.36-1.44,8.97-2.17,13.86-2.17
		c3.79,0,7.29,0.42,10.52,1.26c3.22,0.84,5.99,2.21,8.29,4.1c2.3,1.9,4.11,4.37,5.42,7.41c1.31,3.05,1.96,6.76,1.96,11.13v22.09
		h8.14v16.05h-25.31V142.25z M-1510.86,133.16c2.77,0,5.29-0.45,7.56-1.35c2.26-0.9,4.2-1.99,5.8-3.28v-7.73h-14.06
		c-0.9,0-1.78,0.14-2.64,0.41c-0.86,0.27-1.63,0.66-2.31,1.17c-0.68,0.51-1.23,1.13-1.64,1.88s-0.62,1.6-0.62,2.58
		c0,1.8,0.65,3.3,1.96,4.51C-1515.5,132.56-1513.52,133.16-1510.86,133.16z"/>
	<path class="st0" d="M-1436.91,84.82h12.13v15.35h-12.25l-0.12,25.66c0,1.48,0.12,2.69,0.35,3.6s0.58,1.65,1.03,2.2
		c0.45,0.55,0.99,0.92,1.61,1.11c0.62,0.2,1.35,0.29,2.17,0.29c1.48,0,2.79-0.15,3.93-0.44c1.13-0.29,2.26-0.63,3.4-1.03l2.52,11.31
		c-1.99,1.25-4.21,2.25-6.65,2.99c-2.44,0.74-5.34,1.11-8.7,1.11c-2.38,0-4.66-0.41-6.83-1.23s-4.07-2.06-5.71-3.72
		c-1.64-1.66-2.95-3.74-3.93-6.24c-0.98-2.5-1.45-5.41-1.41-8.73l0.18-26.89h-8.73V84.82h8.79l0.12-14.53l18.22-8.67L-1436.91,84.82
		z"/>
	<path class="st0" d="M-1414.3,54.36h27.36v36.09c2.3-2.11,4.83-3.76,7.59-4.95c2.75-1.19,5.79-1.79,9.11-1.79
		c7.3,0,12.89,2.04,16.76,6.12c3.87,4.08,5.8,10.05,5.8,17.9v21.74h8.91v16.05h-27.13v-33.69c0-3.4-0.84-6.07-2.52-8.03
		c-1.68-1.95-3.85-2.93-6.5-2.93c-1.76,0-3.67,0.49-5.74,1.46c-2.07,0.98-4.16,2.4-6.27,4.28v22.85h8.91v16.05h-36.27v-16.05h9.38
		V70.41h-9.38V54.36z"/>
	<path class="st0" d="M-1294.41,142.25c-1.37,0.86-2.62,1.59-3.75,2.2c-1.13,0.61-2.27,1.09-3.4,1.46
		c-1.13,0.37-2.31,0.64-3.52,0.82c-1.21,0.18-2.54,0.26-3.98,0.26c-3.63,0-6.88-0.5-9.76-1.49s-5.29-2.36-7.27-4.1
		c-1.97-1.74-3.49-3.79-4.54-6.15c-1.05-2.36-1.58-4.93-1.58-7.71c0-2.81,0.54-5.41,1.61-7.79c1.07-2.38,2.63-4.42,4.66-6.12
		c2.03-1.7,4.52-3.03,7.47-3.98c2.95-0.96,6.32-1.44,10.11-1.44c2.77,0,5.3,0.15,7.59,0.44s4.4,0.65,6.36,1.08v-1.88
		c0-1.52-0.29-2.84-0.88-3.96s-1.41-2.03-2.46-2.75c-1.05-0.72-2.32-1.25-3.81-1.58c-1.49-0.33-3.11-0.5-4.86-0.5
		c-3.67,0-6.91,0.36-9.7,1.08c-2.79,0.72-5.48,1.77-8.06,3.13l-5.62-11.37c3.98-2.73,8.15-4.82,12.51-6.27
		c4.36-1.44,8.97-2.17,13.86-2.17c3.79,0,7.29,0.42,10.52,1.26c3.22,0.84,5.99,2.21,8.29,4.1c2.3,1.9,4.11,4.37,5.42,7.41
		c1.31,3.05,1.96,6.76,1.96,11.13v22.09h8.14v16.05h-25.31V142.25z M-1307.77,133.16c2.77,0,5.29-0.45,7.56-1.35
		c2.26-0.9,4.2-1.99,5.8-3.28v-7.73h-14.06c-0.9,0-1.78,0.14-2.64,0.41c-0.86,0.27-1.63,0.66-2.31,1.17
		c-0.68,0.51-1.23,1.13-1.64,1.88s-0.62,1.6-0.62,2.58c0,1.8,0.65,3.3,1.96,4.51C-1312.41,132.56-1310.43,133.16-1307.77,133.16z"/>
	<path class="st0" d="M-1230.37,84.82h11.07v15.35h-11.07v29.3h11.19v16.05h-37.68v-16.05h9.08v-29.3h-9.2V84.82h9.2V74.75
		c0-3.55,0.62-6.68,1.88-9.38c1.25-2.7,2.92-4.96,5.01-6.8c2.09-1.84,4.5-3.22,7.24-4.16c2.73-0.94,5.6-1.41,8.61-1.41
		c2.23,0,4.22,0.17,5.98,0.5c1.76,0.33,3.3,0.75,4.63,1.26c1.33,0.51,2.45,1.05,3.37,1.64c0.92,0.59,1.65,1.13,2.2,1.64l-6.74,12.36
		c-0.9-0.66-1.91-1.19-3.05-1.58c-1.13-0.39-2.52-0.59-4.16-0.59c-1.05,0-2.04,0.18-2.96,0.53c-0.92,0.35-1.72,0.86-2.4,1.52
		c-0.68,0.66-1.22,1.49-1.61,2.49c-0.39,1-0.59,2.16-0.59,3.49V84.82z"/>
	<path class="st0" d="M-1208.98,84.82h27.25v44.65h8.44v16.05h-35.68v-16.05h9.14v-28.59h-9.14V84.82z M-1200.78,65.25
		c0-1.44,0.26-2.8,0.79-4.07c0.53-1.27,1.26-2.37,2.2-3.31s2.04-1.68,3.31-2.23c1.27-0.55,2.65-0.82,4.13-0.82
		c1.41,0,2.73,0.27,3.98,0.82c1.25,0.55,2.34,1.29,3.28,2.23s1.68,2.04,2.23,3.31c0.55,1.27,0.82,2.63,0.82,4.07
		c0,1.45-0.27,2.8-0.82,4.07c-0.55,1.27-1.29,2.37-2.23,3.31s-2.03,1.68-3.28,2.23c-1.25,0.55-2.58,0.82-3.98,0.82
		c-1.49,0-2.86-0.27-4.13-0.82c-1.27-0.55-2.37-1.29-3.31-2.23s-1.67-2.04-2.2-3.31C-1200.52,68.06-1200.78,66.7-1200.78,65.25z"/>
	<path class="st0" d="M-1161.88,135.92l25.14-35.51h-11.78v9.14h-15.29V84.82h53.2v10.55l-26.43,34.45h13.48v-11.66h15.35v27.36
		h-53.67V135.92z"/>
	<path class="st0" d="M-1058.22,84.82h28.71v44.65h7.32v16.05h-25.72v-5.16c-2.07,1.88-4.49,3.32-7.27,4.34
		c-2.77,1.02-5.98,1.52-9.61,1.52c-3.36,0-6.52-0.53-9.49-1.58c-2.97-1.05-5.56-2.65-7.76-4.78c-2.21-2.13-3.95-4.79-5.21-8
		c-1.27-3.2-1.9-6.97-1.9-11.31v-19.69h-7.91V84.82h26.84v35.74c0,4.06,1.03,7.1,3.11,9.11c2.07,2.01,4.77,3.02,8.09,3.02
		c2.34,0,4.47-0.72,6.39-2.17c1.91-1.44,3.3-3.4,4.16-5.86v-23.79h-9.73V84.82z"/>
	<path class="st0" d="M-977.36,54.36h26.54v75.12h11.84v16.05h-29.88v-2.34c-2.11,1.09-4.27,1.95-6.47,2.58
		c-2.21,0.62-4.44,0.94-6.71,0.94c-4.65,0-8.92-0.83-12.8-2.49c-3.89-1.66-7.23-3.93-10.02-6.83c-2.79-2.89-4.97-6.28-6.53-10.17
		c-1.56-3.89-2.34-8.06-2.34-12.51s0.77-8.6,2.31-12.45c1.54-3.85,3.69-7.2,6.45-10.05c2.75-2.85,6.05-5.1,9.9-6.74
		c3.85-1.64,8.08-2.46,12.69-2.46c2.54,0,4.92,0.24,7.15,0.73c2.23,0.49,4.36,1.18,6.39,2.08V70.41h-8.5V54.36z M-981.05,130.53
		c2.58-0.08,4.91-0.74,7-1.99c2.09-1.25,3.82-2.89,5.19-4.92v-17.87c-1.37-2.07-3.13-3.68-5.3-4.83c-2.17-1.15-4.46-1.71-6.88-1.67
		c-2.03-0.04-3.94,0.31-5.71,1.05c-1.78,0.74-3.34,1.8-4.69,3.16c-1.35,1.37-2.41,3.01-3.19,4.92c-0.78,1.91-1.17,4.08-1.17,6.5
		c0,2.38,0.39,4.54,1.17,6.47c0.78,1.93,1.85,3.57,3.19,4.92s2.91,2.37,4.69,3.08C-984.99,130.06-983.09,130.45-981.05,130.53z"/>
	<path class="st0" d="M-895.33,54.36h26.54v75.12h11.84v16.05h-29.88v-2.34c-2.11,1.09-4.27,1.95-6.47,2.58
		c-2.21,0.62-4.44,0.94-6.71,0.94c-4.65,0-8.92-0.83-12.8-2.49c-3.89-1.66-7.23-3.93-10.02-6.83c-2.79-2.89-4.97-6.28-6.53-10.17
		c-1.56-3.89-2.34-8.06-2.34-12.51s0.77-8.6,2.31-12.45c1.54-3.85,3.69-7.2,6.45-10.05c2.75-2.85,6.05-5.1,9.9-6.74
		c3.85-1.64,8.08-2.46,12.69-2.46c2.54,0,4.92,0.24,7.15,0.73c2.23,0.49,4.36,1.18,6.39,2.08V70.41h-8.5V54.36z M-899.02,130.53
		c2.58-0.08,4.91-0.74,7-1.99c2.09-1.25,3.82-2.89,5.19-4.92v-17.87c-1.37-2.07-3.13-3.68-5.3-4.83c-2.17-1.15-4.46-1.71-6.88-1.67
		c-2.03-0.04-3.94,0.31-5.71,1.05c-1.78,0.74-3.34,1.8-4.69,3.16c-1.35,1.37-2.41,3.01-3.19,4.92c-0.78,1.91-1.17,4.08-1.17,6.5
		c0,2.38,0.39,4.54,1.17,6.47c0.78,1.93,1.85,3.57,3.19,4.92s2.91,2.37,4.69,3.08C-902.96,130.06-901.05,130.45-899.02,130.53z"/>
	<path class="st0" d="M-849.22,84.82h27.25v44.65h8.44v16.05h-35.68v-16.05h9.14v-28.59h-9.14V84.82z M-841.02,65.25
		c0-1.44,0.26-2.8,0.79-4.07c0.53-1.27,1.26-2.37,2.2-3.31s2.04-1.68,3.31-2.23c1.27-0.55,2.65-0.82,4.13-0.82
		c1.41,0,2.73,0.27,3.98,0.82c1.25,0.55,2.34,1.29,3.28,2.23s1.68,2.04,2.23,3.31c0.55,1.27,0.82,2.63,0.82,4.07
		c0,1.45-0.27,2.8-0.82,4.07c-0.55,1.27-1.29,2.37-2.23,3.31s-2.03,1.68-3.28,2.23c-1.25,0.55-2.58,0.82-3.98,0.82
		c-1.49,0-2.86-0.27-4.13-0.82c-1.27-0.55-2.37-1.29-3.31-2.23s-1.67-2.04-2.2-3.31C-840.75,68.06-841.02,66.7-841.02,65.25z"/>
	<path class="st0" d="M-753.01,110.61c0-3.4-0.9-6.06-2.7-8c-1.8-1.93-4.18-2.9-7.15-2.9c-2.03,0-4.08,0.45-6.15,1.35
		c-2.07,0.9-4.08,2.58-6.04,5.04v23.38h9.84v16.05h-37.73v-16.05h8.91v-28.59h-8.79V84.82h27.66v5.33c2.54-1.99,5.38-3.56,8.53-4.72
		c3.14-1.15,6.45-1.73,9.93-1.73c7.3,0,12.93,2.04,16.88,6.12c3.95,4.08,5.92,10.05,5.92,17.9v21.74h8.61v16.05h-27.71V110.61z"/>
</g>
<g>
	<path d="M-180.89,84.88h27.25v44.65h8.44v16.05h-35.68v-16.05h9.14v-28.59h-9.14V84.88z M-172.68,65.31c0-1.44,0.26-2.8,0.79-4.07
		c0.53-1.27,1.26-2.37,2.2-3.31s2.04-1.68,3.31-2.23c1.27-0.55,2.65-0.82,4.13-0.82c1.41,0,2.73,0.27,3.98,0.82
		c1.25,0.55,2.34,1.29,3.28,2.23s1.68,2.04,2.23,3.31c0.55,1.27,0.82,2.63,0.82,4.07c0,1.45-0.27,2.8-0.82,4.07
		c-0.55,1.27-1.29,2.37-2.23,3.31s-2.03,1.68-3.28,2.23c-1.25,0.55-2.58,0.82-3.98,0.82c-1.49,0-2.86-0.27-4.13-0.82
		c-1.27-0.55-2.37-1.29-3.31-2.23s-1.67-2.04-2.2-3.31C-172.42,68.12-172.68,66.76-172.68,65.31z"/>
	<path d="M-134.64,54.41h27.36v36.09c2.3-2.11,4.83-3.76,7.59-4.95c2.75-1.19,5.79-1.79,9.11-1.79c7.3,0,12.89,2.04,16.76,6.12
		c3.87,4.08,5.8,10.05,5.8,17.9v21.74h8.91v16.05h-27.13v-33.69c0-3.4-0.84-6.07-2.52-8.03c-1.68-1.95-3.85-2.93-6.5-2.93
		c-1.76,0-3.67,0.49-5.74,1.46c-2.07,0.98-4.16,2.4-6.27,4.28v22.85h8.91v16.05h-36.27v-16.05h9.37V70.47h-9.37V54.41z"/>
</g>
<g>
	<path class="st0" d="M39.11,84.88h27.25v44.65h8.44v16.05H39.11v-16.05h9.14v-28.59h-9.14V84.88z M47.32,65.31
		c0-1.44,0.26-2.8,0.79-4.07c0.53-1.27,1.26-2.37,2.2-3.31s2.04-1.68,3.31-2.23c1.27-0.55,2.65-0.82,4.13-0.82
		c1.41,0,2.73,0.27,3.98,0.82c1.25,0.55,2.34,1.29,3.28,2.23s1.68,2.04,2.23,3.31c0.55,1.27,0.82,2.63,0.82,4.07
		c0,1.45-0.27,2.8-0.82,4.07c-0.55,1.27-1.29,2.37-2.23,3.31s-2.03,1.68-3.28,2.23c-1.25,0.55-2.58,0.82-3.98,0.82
		c-1.49,0-2.86-0.27-4.13-0.82c-1.27-0.55-2.37-1.29-3.31-2.23s-1.67-2.04-2.2-3.31C47.58,68.12,47.32,66.76,47.32,65.31z"/>
	<path class="st0" d="M85.36,54.41h27.36v36.09c2.3-2.11,4.83-3.76,7.59-4.95c2.75-1.19,5.79-1.79,9.11-1.79
		c7.3,0,12.89,2.04,16.76,6.12c3.87,4.08,5.8,10.05,5.8,17.9v21.74h8.91v16.05h-27.13v-33.69c0-3.4-0.84-6.07-2.52-8.03
		c-1.68-1.95-3.85-2.93-6.5-2.93c-1.76,0-3.67,0.49-5.74,1.46c-2.07,0.98-4.16,2.4-6.27,4.28v22.85h8.91v16.05H85.36v-16.05h9.38
		V70.47h-9.38V54.41z"/>
</g>
</svg>
